<svg xmlns="http://www.w3.org/2000/svg" width="26.051" height="19.843" viewBox="0 0 26.051 19.843"><defs><style>.a{fill:#808285;}</style></defs><g transform="translate(0 -61)"><g transform="translate(0 61)"><path class="a" d="M23.761,61H2.29A2.294,2.294,0,0,0,0,63.29V78.554a2.293,2.293,0,0,0,2.29,2.29H23.761a2.293,2.293,0,0,0,2.29-2.29V63.29A2.293,2.293,0,0,0,23.761,61Zm-.316,1.526L13.074,72.9,2.613,62.526ZM1.526,78.238V63.6l7.351,7.288Zm1.079,1.079,7.356-7.356,2.577,2.555a.763.763,0,0,0,1.077,0L16.129,72l7.316,7.316Zm21.919-1.079-7.316-7.316,7.316-7.316Z" transform="translate(0 -61)"/></g></g></svg>