<svg xmlns="http://www.w3.org/2000/svg" width="19.5" height="18.654" viewBox="0 0 19.5 18.654"><defs><style>.a{fill:#333;}</style></defs><g transform="translate(-1737.183 -163)"><g transform="translate(1737.183 163)"><g transform="translate(0 0)"><g transform="translate(0 0)"><path class="a" d="M231.447,16.784,226.865,12.2a.765.765,0,0,0-1.085,0L221.2,16.784a.767.767,0,1,0,1.085,1.085l3.262-3.262V28.035a.777.777,0,1,0,1.553,0V14.606l3.262,3.262a.767.767,0,1,0,1.085-1.085Z" transform="translate(-212.173 -11.975)"/><path class="a" d="M22.448,70.644a.765.765,0,0,0-1.085,0L18.1,73.906V60.477a.777.777,0,1,0-1.553,0V73.906l-3.262-3.262A.767.767,0,0,0,12.2,71.728l4.583,4.583a.765.765,0,0,0,1.085,0l4.583-4.583a.768.768,0,0,0,0-1.085Z" transform="translate(-11.975 -57.883)"/></g></g></g></g></svg>