<svg xmlns="http://www.w3.org/2000/svg" width="23.35" height="23.35" viewBox="0 0 23.35 23.35"><defs><style>.a{fill:#eb5757;}</style></defs><path class="a" d="M236.614,107.641a.973.973,0,1,1-.973-.973A.973.973,0,0,1,236.614,107.641Zm0,0" transform="translate(-223.966 -101.803)"/><path class="a" d="M205.1,201.729a.73.73,0,0,1-.73-.73v-7.54H203.4a.73.73,0,1,1,0-1.459h1.7a.73.73,0,0,1,.73.73V201A.73.73,0,0,1,205.1,201.729Zm0,0" transform="translate(-193.425 -183.244)"/><path class="a" d="M11.675,23.35A11.675,11.675,0,1,1,23.35,11.675,11.688,11.688,0,0,1,11.675,23.35Zm0-21.891A10.216,10.216,0,1,0,21.891,11.675,10.227,10.227,0,0,0,11.675,1.459Zm0,0"/><path class="a" d="M197.108,374.791H192.73a.73.73,0,1,1,0-1.459h4.378a.73.73,0,1,1,0,1.459Zm0,0" transform="translate(-183.244 -356.306)"/></svg>