<svg xmlns="http://www.w3.org/2000/svg" xmlns:xlink="http://www.w3.org/1999/xlink" width="49" height="49" viewBox="0 0 49 49"><defs><style>.a{fill:#fff;}.b{filter:url(#q);}.c{filter:url(#o);}.d{filter:url(#m);}.e{filter:url(#k);}.f{filter:url(#i);}.g{filter:url(#g);}.h{filter:url(#e);}.i{filter:url(#c);}.j{filter:url(#a);}</style><filter id="a" x="0" y="0" width="25.75" height="25.75" filterUnits="userSpaceOnUse"><feOffset dy="5" input="SourceAlpha"/><feGaussianBlur stdDeviation="3" result="b"/><feFlood flood-opacity="0.157"/><feComposite operator="in" in2="b"/><feComposite in="SourceGraphic"/></filter><filter id="c" x="0" y="11.625" width="25.75" height="25.75" filterUnits="userSpaceOnUse"><feOffset dy="5" input="SourceAlpha"/><feGaussianBlur stdDeviation="3" result="d"/><feFlood flood-opacity="0.157"/><feComposite operator="in" in2="d"/><feComposite in="SourceGraphic"/></filter><filter id="e" x="0" y="23.25" width="25.75" height="25.75" filterUnits="userSpaceOnUse"><feOffset dy="5" input="SourceAlpha"/><feGaussianBlur stdDeviation="3" result="f"/><feFlood flood-opacity="0.157"/><feComposite operator="in" in2="f"/><feComposite in="SourceGraphic"/></filter><filter id="g" x="11.625" y="0" width="25.75" height="25.75" filterUnits="userSpaceOnUse"><feOffset dy="5" input="SourceAlpha"/><feGaussianBlur stdDeviation="3" result="h"/><feFlood flood-opacity="0.157"/><feComposite operator="in" in2="h"/><feComposite in="SourceGraphic"/></filter><filter id="i" x="11.625" y="11.625" width="25.75" height="25.75" filterUnits="userSpaceOnUse"><feOffset dy="5" input="SourceAlpha"/><feGaussianBlur stdDeviation="3" result="j"/><feFlood flood-opacity="0.157"/><feComposite operator="in" in2="j"/><feComposite in="SourceGraphic"/></filter><filter id="k" x="11.625" y="23.25" width="25.75" height="25.75" filterUnits="userSpaceOnUse"><feOffset dy="5" input="SourceAlpha"/><feGaussianBlur stdDeviation="3" result="l"/><feFlood flood-opacity="0.157"/><feComposite operator="in" in2="l"/><feComposite in="SourceGraphic"/></filter><filter id="m" x="23.25" y="0" width="25.75" height="25.75" filterUnits="userSpaceOnUse"><feOffset dy="5" input="SourceAlpha"/><feGaussianBlur stdDeviation="3" result="n"/><feFlood flood-opacity="0.157"/><feComposite operator="in" in2="n"/><feComposite in="SourceGraphic"/></filter><filter id="o" x="23.25" y="11.625" width="25.75" height="25.75" filterUnits="userSpaceOnUse"><feOffset dy="5" input="SourceAlpha"/><feGaussianBlur stdDeviation="3" result="p"/><feFlood flood-opacity="0.157"/><feComposite operator="in" in2="p"/><feComposite in="SourceGraphic"/></filter><filter id="q" x="23.25" y="23.25" width="25.75" height="25.75" filterUnits="userSpaceOnUse"><feOffset dy="5" input="SourceAlpha"/><feGaussianBlur stdDeviation="3" result="r"/><feFlood flood-opacity="0.157"/><feComposite operator="in" in2="r"/><feComposite in="SourceGraphic"/></filter></defs><g transform="translate(9 4)"><g class="j" transform="matrix(1, 0, 0, 1, -9, -4)"><path class="a" d="M6.458,0H1.292A1.292,1.292,0,0,0,0,1.292V6.458A1.292,1.292,0,0,0,1.292,7.75H6.458A1.292,1.292,0,0,0,7.75,6.458V1.292A1.292,1.292,0,0,0,6.458,0Z" transform="translate(9 4)"/></g><g class="i" transform="matrix(1, 0, 0, 1, -9, -4)"><path class="a" d="M6.458,9H1.292A1.292,1.292,0,0,0,0,10.292v5.167A1.292,1.292,0,0,0,1.292,16.75H6.458A1.292,1.292,0,0,0,7.75,15.458V10.292A1.292,1.292,0,0,0,6.458,9Z" transform="translate(9 6.63)"/></g><g class="h" transform="matrix(1, 0, 0, 1, -9, -4)"><path class="a" d="M6.458,18H1.292A1.292,1.292,0,0,0,0,19.292v5.167A1.292,1.292,0,0,0,1.292,25.75H6.458A1.292,1.292,0,0,0,7.75,24.458V19.292A1.292,1.292,0,0,0,6.458,18Z" transform="translate(9 9.25)"/></g><g class="g" transform="matrix(1, 0, 0, 1, -9, -4)"><path class="a" d="M15.458,0H10.292A1.292,1.292,0,0,0,9,1.292V6.458A1.292,1.292,0,0,0,10.292,7.75h5.167A1.292,1.292,0,0,0,16.75,6.458V1.292A1.292,1.292,0,0,0,15.458,0Z" transform="translate(11.63 4)"/></g><g class="f" transform="matrix(1, 0, 0, 1, -9, -4)"><path class="a" d="M15.458,9H10.292A1.292,1.292,0,0,0,9,10.292v5.167a1.292,1.292,0,0,0,1.292,1.292h5.167a1.292,1.292,0,0,0,1.292-1.292V10.292A1.292,1.292,0,0,0,15.458,9Z" transform="translate(11.63 6.63)"/></g><g class="e" transform="matrix(1, 0, 0, 1, -9, -4)"><path class="a" d="M15.458,18H10.292A1.292,1.292,0,0,0,9,19.292v5.167a1.292,1.292,0,0,0,1.292,1.292h5.167a1.292,1.292,0,0,0,1.292-1.292V19.292A1.292,1.292,0,0,0,15.458,18Z" transform="translate(11.63 9.25)"/></g><g class="d" transform="matrix(1, 0, 0, 1, -9, -4)"><path class="a" d="M24.458,0H19.292A1.292,1.292,0,0,0,18,1.292V6.458A1.292,1.292,0,0,0,19.292,7.75h5.167A1.292,1.292,0,0,0,25.75,6.458V1.292A1.292,1.292,0,0,0,24.458,0Z" transform="translate(14.25 4)"/></g><g class="c" transform="matrix(1, 0, 0, 1, -9, -4)"><path class="a" d="M24.458,9H19.292A1.292,1.292,0,0,0,18,10.292v5.167a1.292,1.292,0,0,0,1.292,1.292h5.167a1.292,1.292,0,0,0,1.292-1.292V10.292A1.292,1.292,0,0,0,24.458,9Z" transform="translate(14.25 6.63)"/></g><g class="b" transform="matrix(1, 0, 0, 1, -9, -4)"><path class="a" d="M24.458,18H19.292A1.292,1.292,0,0,0,18,19.292v5.167a1.292,1.292,0,0,0,1.292,1.292h5.167a1.292,1.292,0,0,0,1.292-1.292V19.292A1.292,1.292,0,0,0,24.458,18Z" transform="translate(14.25 9.25)"/></g></g></svg>