<svg xmlns="http://www.w3.org/2000/svg" width="21.067" height="28.089" viewBox="0 0 21.067 28.089"><defs><style>.a{fill:#808285;}</style></defs><g transform="translate(-3)"><path class="a" d="M21.433,26.556H5.633A2.637,2.637,0,0,1,3,23.922V11.633A2.637,2.637,0,0,1,5.633,9h15.8a2.637,2.637,0,0,1,2.633,2.633V23.922A2.637,2.637,0,0,1,21.433,26.556Zm-15.8-15.8a.879.879,0,0,0-.878.878V23.922a.879.879,0,0,0,.878.878h15.8a.879.879,0,0,0,.878-.878V11.633a.879.879,0,0,0-.878-.878Z" transform="translate(0 1.533)"/><path class="a" d="M19.167,12.289a.878.878,0,0,1-.878-.878V7.022a5.267,5.267,0,0,0-10.533,0v4.389a.878.878,0,1,1-1.756,0V7.022a7.022,7.022,0,0,1,14.044,0v4.389A.878.878,0,0,1,19.167,12.289Z" transform="translate(0.511)"/><path class="a" d="M12.341,17.681a2.341,2.341,0,1,1,2.341-2.341A2.343,2.343,0,0,1,12.341,17.681Zm0-2.926a.585.585,0,1,0,.585.585A.586.586,0,0,0,12.341,14.756Z" transform="translate(1.193 2.215)"/><path class="a" d="M12.128,20.724a.878.878,0,0,1-.878-.878V16.628a.878.878,0,0,1,1.756,0v3.219A.878.878,0,0,1,12.128,20.724Z" transform="translate(1.406 2.683)"/></g></svg>