<svg xmlns="http://www.w3.org/2000/svg" width="29.271" height="29.271" viewBox="0 0 29.271 29.271"><defs><style>.a{fill:#808285;}</style></defs><g transform="matrix(0.978, 0.208, -0.208, 0.978, 5.131, 0)"><path class="a" d="M17.738,24.68a6.876,6.876,0,0,1-2.359-.421,25.155,25.155,0,0,1-9.134-5.822A25.153,25.153,0,0,1,.422,9.3,6.826,6.826,0,0,1,.074,5.946,7,7,0,0,1,3.671.822,6.872,6.872,0,0,1,6.962,0a.771.771,0,0,1,.754.61L8.926,6.259a.771.771,0,0,1-.209.707L6.649,9.034a20.3,20.3,0,0,0,9,9l2.068-2.068a.772.772,0,0,1,.707-.209l5.649,1.211a.771.771,0,0,1,.61.754,6.872,6.872,0,0,1-.822,3.29,7,7,0,0,1-5.124,3.6,6.86,6.86,0,0,1-1,.073ZM6.345,1.576a5.4,5.4,0,0,0-4.474,7.2A23.392,23.392,0,0,0,15.905,22.808a5.4,5.4,0,0,0,7.2-4.474l-4.6-.985-2.16,2.16a.771.771,0,0,1-.873.153A21.837,21.837,0,0,1,5.017,9.205a.771.771,0,0,1,.153-.873l2.16-2.16Z" transform="translate(0)"/></g></svg>