<svg xmlns="http://www.w3.org/2000/svg" xmlns:xlink="http://www.w3.org/1999/xlink" width="48" height="48.001" viewBox="0 0 48 48.001"><defs><style>.a{fill:#fff;}.b{filter:url(#a);}</style><filter id="a" x="0" y="0" width="48" height="48.001" filterUnits="userSpaceOnUse"><feOffset dy="5" input="SourceAlpha"/><feGaussianBlur stdDeviation="3" result="b"/><feFlood flood-opacity="0.157"/><feComposite operator="in" in2="b"/><feComposite in="SourceGraphic"/></filter></defs><g class="b" transform="matrix(1, 0, 0, 1, 0, 0)"><path class="a" d="M28.355,11.743l-2.35-.3a11.813,11.813,0,0,0-.711-1.718l1.451-1.869a1.858,1.858,0,0,0-.153-2.474L24.624,3.415a1.863,1.863,0,0,0-2.481-.159L20.276,4.708A11.771,11.771,0,0,0,18.557,4l-.3-2.346A1.872,1.872,0,0,0,16.4,0H13.6a1.872,1.872,0,0,0-1.858,1.646L11.444,4a11.634,11.634,0,0,0-1.719.711L7.858,3.256a1.86,1.86,0,0,0-2.474.153L3.415,5.376a1.864,1.864,0,0,0-.159,2.483L4.708,9.727A11.675,11.675,0,0,0,4,11.444l-2.346.3A1.872,1.872,0,0,0,0,13.6v2.8a1.872,1.872,0,0,0,1.646,1.858l2.35.3a11.813,11.813,0,0,0,.711,1.718L3.256,22.143a1.858,1.858,0,0,0,.153,2.474l1.969,1.969a1.865,1.865,0,0,0,2.481.158l1.868-1.451A11.541,11.541,0,0,0,11.444,26l.3,2.345A1.872,1.872,0,0,0,13.6,30h2.8a1.872,1.872,0,0,0,1.858-1.646l.3-2.35a11.813,11.813,0,0,0,1.718-.711l1.869,1.451a1.858,1.858,0,0,0,2.474-.153l1.969-1.969a1.862,1.862,0,0,0,.159-2.481l-1.451-1.868A11.541,11.541,0,0,0,26,18.557l2.345-.3A1.872,1.872,0,0,0,30,16.4V13.6a1.87,1.87,0,0,0-1.645-1.858ZM15,21.251A6.25,6.25,0,1,1,21.251,15,6.257,6.257,0,0,1,15,21.251Z" transform="translate(9 4)"/></g></svg>