<svg xmlns="http://www.w3.org/2000/svg" width="145.537" height="134.524" viewBox="0 0 145.537 134.524"><defs><style>.a{fill:#eaeaea;}</style></defs><path class="a" d="M118.363,53.535A42.157,42.157,0,0,0,40.252,39.529a24.149,24.149,0,0,0-4.429-.419A23.105,23.105,0,0,0,12.749,62.184a25.223,25.223,0,0,0,.479,4.788A32.109,32.109,0,0,0,0,92.859a34.327,34.327,0,0,0,8.709,22.715,31.083,31.083,0,0,0,21.548,10.834H56.234a4.04,4.04,0,1,0,0-8.08H30.616c-12.24-.748-22.535-12.39-22.535-25.5A23.987,23.987,0,0,1,19.962,72.18a4.073,4.073,0,0,0,1.766-4.908,14.661,14.661,0,0,1-.9-5.148A15.02,15.02,0,0,1,35.823,47.13a14.737,14.737,0,0,1,5.118.9A4.059,4.059,0,0,0,46,45.963a34.074,34.074,0,0,1,64.733,11.223,4.036,4.036,0,0,0,3.352,3.591c13.318,2.274,23.373,14.575,23.373,28.611,0,14.874-11.7,27.8-26.127,28.91H89.273a4.04,4.04,0,1,0,0,8.08h22.505a35.8,35.8,0,0,0,24-11.851,37.27,37.27,0,0,0,9.756-25.139C145.507,72.6,134.045,57.665,118.363,53.535Z" transform="translate(0 -18.4)"/><path class="a" d="M207.9,213.711a4.028,4.028,0,0,0,0-5.716l-21.4-21.4a4.088,4.088,0,0,0-2.843-1.2,3.963,3.963,0,0,0-2.843,1.2l-21.4,21.4a4.055,4.055,0,0,0,2.843,6.913,3.942,3.942,0,0,0,2.843-1.2L179.616,199.2V265.9a4.04,4.04,0,1,0,8.08,0V199.2l14.515,14.515A3.992,3.992,0,0,0,207.9,213.711Z" transform="translate(-110.872 -135.421)"/></svg>