<svg xmlns="http://www.w3.org/2000/svg" xmlns:xlink="http://www.w3.org/1999/xlink" width="72.42" height="63.35" viewBox="0 0 72.42 63.35"><defs><style>.a{fill:#96bc33;}.b{filter:url(#c);}.c{filter:url(#a);}</style><filter id="a" x="0" y="0" width="72.42" height="63.35" filterUnits="userSpaceOnUse"><feOffset dy="3" input="SourceAlpha"/><feGaussianBlur stdDeviation="3" result="b"/><feFlood flood-opacity="0.161"/><feComposite operator="in" in2="b"/><feComposite in="SourceGraphic"/></filter><filter id="c" x="17.393" y="11.627" width="37.636" height="40.091" filterUnits="userSpaceOnUse"><feOffset dy="3" input="SourceAlpha"/><feGaussianBlur stdDeviation="3" result="d"/><feFlood flood-opacity="0.161"/><feComposite operator="in" in2="d"/><feComposite in="SourceGraphic"/></filter></defs><g transform="translate(9 -34)"><g transform="translate(0 40)"><g transform="translate(0 0)"><g class="c" transform="matrix(1, 0, 0, 1, -9, -6)"><path class="a" d="M45.35,40H0V85.35H54.42V40ZM7.256,83.536H1.814V78.094H7.256Zm0-7.256H1.814V70.838H7.256Zm0-7.256H1.814V63.582H7.256Zm0-7.256H1.814V56.326H7.256Zm0-7.256H1.814V49.07H7.256Zm0-7.256H1.814V41.814H7.256ZM45.35,83.536H9.07V41.814H45.35Zm7.256,0H47.164V78.094h5.442Zm0-7.256H47.164V70.838h5.442Zm0-7.256H47.164V63.582h5.442Zm0-7.256H47.164V56.326h5.442Zm0-7.256H47.164V49.07h5.442Zm0-7.256H47.164V41.814h5.442Z" transform="translate(9 -34)"/></g></g></g><g transform="translate(17.393 51.627)"><g transform="translate(0 0)"><g class="b" transform="matrix(1, 0, 0, 1, -26.39, -17.63)"><path class="a" d="M195.474,178.4a1.227,1.227,0,0,0-.456-.456l-17.178-9.816a1.227,1.227,0,0,0-1.84,1.069v19.632a1.227,1.227,0,0,0,1.84,1.061l17.178-9.816A1.227,1.227,0,0,0,195.474,178.4Zm-17.02,8.314v-15.4l13.477,7.7Z" transform="translate(-149.61 -150.33)"/></g></g></g></g></svg>